<svg width="216" height="250" viewBox="0 0 216 250" fill="none" xmlns="http://www.w3.org/2000/svg">
<path d="M135.223 198.174C141.114 205.26 148.356 210.167 156.775 213.43C161.987 215.45 167.385 216.533 172.934 216.997C173.796 217.069 175.194 216.709 175.199 218.027C175.203 219.232 173.833 219.1 172.945 219.199C161.202 220.515 150.232 217.913 139.941 212.341C128.305 206.041 120.096 196.695 115.501 184.191C110.344 170.158 105.652 155.965 100.793 141.829C98.7236 135.81 96.7154 129.745 92.9313 124.53C86.4847 115.646 78.1345 109.803 66.9452 108.711C62.0199 108.231 62.7011 107.388 60.9539 112.757C56.0759 127.747 51.0634 142.693 46.1022 157.655C45.4211 159.709 44.7874 161.782 44.0207 163.804C43.57 164.993 43.7409 165.825 44.7524 166.627C49.8118 170.633 55.4561 173.205 61.9522 173.552C65.8587 173.76 69.7846 173.934 73.6245 172.8C75.6674 172.198 77.5079 171.232 79.1695 169.926C82.4995 167.309 83.2852 163.852 81.4338 160.026C80.9037 158.931 80.2554 157.891 79.7525 156.784C78.2879 153.559 77.943 150.297 80.4304 147.453C83.0509 144.457 86.4446 143.428 90.3378 144.538C96.409 146.27 99.2862 152.269 97.0599 158.41C94.4277 165.671 89.1137 170.499 82.4303 173.714C69.1543 180.098 56.179 179.475 43.789 171.153C43.3003 170.825 42.8612 170.352 41.9522 170.346C40.3519 174.98 38.1399 179.494 37.4501 184.48C37.1251 186.829 37.8687 188.921 40.2367 190.06C41.0034 190.428 41.7178 190.884 41.4597 191.891C41.2272 192.797 40.4243 192.864 39.6631 192.865C35.4729 192.875 31.2828 192.873 27.0927 192.871C26.3159 192.87 25.5409 192.763 25.2961 191.883C25.052 191.004 25.6466 190.479 26.3227 190.109C30.7823 187.67 33.0654 183.654 34.5052 178.976C35.5795 175.485 36.7099 172.009 37.9241 168.564C38.3869 167.252 38.1748 166.334 37.2855 165.263C31.0072 157.702 27.747 149.002 27.7852 139.131C27.8477 122.95 38.6884 109.003 54.4493 105.362C57.9632 104.55 59.476 103.024 60.5473 99.6575C64.1976 88.1854 68.2641 76.8463 72.1742 65.4573C73.8409 60.6027 71.6148 54.8586 67.0766 52.3084C65.0515 51.1704 62.8768 50.4749 60.605 50.035C59.7492 49.8692 58.7348 49.7159 58.7039 48.5705C58.6694 47.2882 59.743 47.1107 60.6827 46.9892C69.7195 45.82 77.5773 47.454 82.3998 58.0718C85.1702 64.1716 87.1717 70.5828 89.2784 76.9411C89.4188 77.3649 89.7069 77.8148 89.3004 78.4328C87.8103 78.5276 86.4291 77.7204 84.949 77.4322C84.4223 77.3297 83.9284 77.0506 83.401 76.9591C79.4775 76.2782 76.4282 74.6507 75.8884 70.1938C75.8622 69.9777 75.593 69.7911 75.283 69.393C74.0083 71.676 73.418 74.0152 72.68 76.2898C69.9664 84.6536 67.2546 93.0181 64.5809 101.395C63.7847 103.889 63.9023 104.119 66.4369 104.302C75.6882 104.97 83.633 108.633 90.579 114.664C90.7646 114.826 90.9913 114.939 91.5112 115.28C88.8172 106.655 85.4181 98.6422 82.766 89.6567C85.5445 90.544 87.7724 91.4424 90.0856 91.9529C94.1837 92.8573 96.1153 95.2986 97.5042 99.313C107.168 127.247 117.134 155.077 127.009 182.937C128.943 188.393 131.443 193.549 135.223 198.174ZM53.0935 121.912C54.4218 117.842 55.75 113.771 57.1249 109.558C47.8364 110.625 37.0452 119.099 33.4893 132.388C30.4942 143.581 35.0662 157.056 40.1871 161.196C44.4827 148.118 48.7363 135.167 53.0935 121.912Z" fill="white"/>
<path d="M173.127 95.22C173.125 123.653 173.123 151.884 173.128 180.114C173.128 181.332 173.147 182.553 173.239 183.766C173.464 186.775 174.767 189.06 177.713 190.168C178.503 190.465 179.323 190.78 179.146 191.821C178.965 192.892 178.034 192.863 177.223 192.863C171.075 192.866 164.926 192.857 158.777 192.841C158.015 192.839 157.204 192.777 157.041 191.822C156.905 191.022 157.46 190.516 158.134 190.317C162.12 189.135 163.149 185.921 163.169 182.395C163.26 165.945 163.209 149.494 163.173 133.043C163.17 131.905 162.986 130.738 162.694 129.635C162.158 127.605 160.401 126.516 157.579 126.507C149.539 126.478 141.498 126.549 133.458 126.509C125.761 126.47 118.065 126.341 110.369 126.247C109.965 126.242 109.554 126.233 109.158 126.161C108.133 125.976 108.012 125.108 107.891 124.311C107.753 123.4 108.461 123.115 109.137 123.031C110.338 122.881 111.555 122.795 112.765 122.794C127.292 122.788 141.819 122.799 156.347 122.813C161.656 122.817 163.217 121.314 163.224 115.928C163.252 96.634 163.241 77.3399 163.253 58.0457C163.256 54.3046 162.275 51.2041 158.268 49.9362C157.436 49.6729 156.786 49.1186 157.002 48.1437C157.201 47.2434 158.009 47.1466 158.781 47.1453C165.064 47.1348 171.348 47.1285 177.632 47.1302C178.333 47.1303 179.026 47.2403 179.203 48.0876C179.381 48.9398 179.027 49.5968 178.209 49.841C173.953 51.111 173.127 54.3549 173.141 58.2564C173.183 70.5097 173.138 82.7634 173.127 95.22Z" fill="white"/>
<path d="M59.7721 80.8261C53.5381 78.1844 48.1828 74.6088 44.49 68.9849C36.5472 56.8886 40.093 40.9068 52.4358 33.3651C62.575 27.1698 73.4648 26.2257 84.8361 29.1047C88.1201 29.9361 91.2897 31.0846 94.4199 32.349C96.9302 33.363 99.5344 33.5616 102.183 33.4068C103.976 33.302 104.774 33.9841 104.748 35.8615C104.678 40.8695 104.725 45.8791 104.716 50.888C104.714 51.976 104.82 53.1822 103.316 53.3948C101.802 53.6091 101.346 52.5573 101.054 51.3508C98.5411 40.964 91.7101 34.9065 81.5731 32.7163C73.588 30.9911 65.703 31.4335 58.6343 36.3161C54.1893 39.3865 51.8124 43.6727 51.1439 48.9926C49.6973 60.5046 56.4679 69.0015 65.5599 73.0935C67.4389 73.9392 67.8894 74.8306 67.0666 76.5825C66.8665 77.0087 66.7526 77.475 66.5894 77.9193C64.7807 82.8427 64.7802 82.8425 59.7721 80.8261Z" fill="white"/>
<path d="M123.782 101.586C127.368 107.237 129.052 113.239 128.7 119.818C128.619 121.339 128.016 121.822 126.585 121.76C124.697 121.679 122.803 121.711 120.911 121.725C119.84 121.732 119.297 121.248 119.209 120.171C118.201 107.9 110.643 100.491 100.559 94.9531C95.0671 91.9372 89.08 90.2515 83.1543 88.3956C79.9331 87.3867 76.7321 86.3116 73.4983 85.3459C71.9579 84.8859 71.3974 84.1979 72.0928 82.5628C72.8579 80.7638 73.3891 78.8641 74.0086 77.0038C74.3006 76.1269 74.7211 75.5738 75.7835 75.9437C85.5315 79.3375 95.6985 81.5053 105.083 85.9609C112.606 89.5326 119.01 94.4687 123.782 101.586Z" fill="white"/>
<path d="M115.333 137.695C116.879 134.967 118.041 132.241 118.655 129.31C118.902 128.132 119.483 127.561 120.724 127.596C122.475 127.647 124.229 127.605 125.981 127.604C126.975 127.603 127.462 127.979 127.301 129.089C126.593 133.987 120.201 143.243 115.662 145.874C113.316 143.059 113.214 141.037 115.333 137.695Z" fill="white"/>
</svg>
