<svg width="988" height="419" viewBox="0 0 988 419" fill="none" xmlns="http://www.w3.org/2000/svg">
<g clip-path="url(#clip0_2093_5933)">
<path d="M200.578 129.214C206.587 130.827 212.155 132.149 217.619 133.81C223.481 135.591 229.251 135.141 236.171 133.163C236.974 146.601 239.013 159.391 237.918 172.172C235.825 172.669 235.034 172.019 234.721 170.979C228.19 149.325 211.554 139.265 191.307 133.85C179.158 130.601 166.674 130.294 154.281 132.944C136.286 136.791 124.236 147.392 119.622 165.31C114.811 183.99 119.767 200.114 134.572 212.681C146.756 223.024 161.448 228.815 176.248 234.215C193.885 240.649 211.775 246.429 228.583 254.955C239.19 260.336 249.283 266.504 257.899 274.776C280.962 296.918 285.891 331.815 270.599 363.637C259.704 386.311 241.241 400.601 218.27 409.006C179.506 423.189 141.28 422.11 104.907 401.322C82.4734 388.5 69.4548 368.906 68.5317 342.655C67.5408 314.48 81.8549 294.832 105.77 282.039C144.946 261.084 201.602 270.204 230.445 308.021C234.394 313.198 237.464 318.784 238.221 325.354C236.632 325.823 235.973 325.236 235.669 324.509C225.708 300.675 206.539 287.979 182.763 281.002C162.655 275.101 142.485 274.816 122.543 281.69C99.1454 289.756 82.2676 304.472 77.9843 329.848C73.7274 355.068 83.0382 375.397 102.916 391.226C118.697 403.792 137.17 409.149 156.712 411.152C183.895 413.937 208.865 408.718 230.754 390.869C263.406 364.243 267.954 301.304 222.472 275.131C208.227 266.934 193.066 260.986 177.666 255.519C158.234 248.621 138.673 242.066 121.464 230.196C100.721 215.889 91.4902 195.263 96.7543 172.766C101.76 151.374 116.373 138.432 136.227 131.01C157.207 123.166 178.617 123.636 200.578 129.214Z" fill="white"/>
<path d="M364.627 264.225C357.554 284.522 350.784 304.414 343.618 324.163C341.85 329.036 341.512 332.701 346.644 335.377C347.549 335.849 348.065 336.814 347.955 338.332C345.452 341.157 342.903 337.72 339.934 338.011C336.699 342.357 336.614 347.25 339.098 352.031C341.73 357.097 347.916 356.297 352.029 359.957C337.819 359.957 323.609 359.957 308.917 359.957C310.022 356.436 312.636 356.952 314.578 356.406C323.325 353.945 331.985 343.067 332.427 334.174C332.55 331.692 330.948 330.509 329.557 329.089C311.785 310.935 306.709 289.193 313.587 265.302C320.945 239.748 339.19 224.605 364.675 218.485C370.998 216.967 374.434 214.631 376.365 208.308C380.711 194.074 385.583 179.982 390.805 166.043C393.017 160.137 392.445 155.182 389.592 149.826C384.615 140.486 378.039 133.578 366.804 132.577C364.895 132.407 362.602 132.545 361.568 129.589C363.836 126.15 367.701 127.536 370.798 127.154C388.481 124.973 402.799 133.726 409.928 149.896C437.665 212.809 465.389 275.729 493.592 338.434C505.68 365.311 523.681 387.439 550.308 401.433C567.81 410.631 586.466 415.17 606.344 414.122C608.373 414.015 610.41 414.041 612.442 414.089C612.751 414.096 613.05 414.555 613.686 415.08C612.664 418.139 609.7 417.383 607.679 417.616C558.792 423.251 507.473 402.503 480.445 355.47C466.277 330.815 456.731 303.985 444.921 278.218C439.82 267.091 434.982 255.843 430.136 244.602C428.877 241.681 426.981 239.441 424.532 237.495C413.139 228.441 400.01 223.964 385.69 222.384C381.122 221.88 378.7 223.253 377.216 227.93C373.391 239.977 368.968 251.834 364.627 264.225ZM319.278 297.785C322.423 307.9 326.335 317.571 335.34 325.687C347.229 291.451 358.815 258.086 370.401 224.721C369.756 224.33 369.112 223.938 368.467 223.547C353.729 226.403 341.224 233.578 331.555 245.107C318.961 260.124 315.757 277.739 319.278 297.785ZM420.187 221.414C412.953 204.699 405.72 187.984 397.786 169.653C392.005 186.116 386.85 200.794 381.379 216.373C396.844 216.776 410.171 220.948 423.607 229.421C422.104 225.925 421.309 224.078 420.187 221.414Z" fill="white"/>
<path d="M533.792 288.877C551.159 338.476 595.929 369.15 646.273 366.26C655.952 365.704 665.38 363.754 673.966 359.184C686.241 352.65 688.956 346.037 686.706 335.155C683.898 321.572 694.305 312.131 706.892 315.872C716.243 318.652 720.492 327.794 716.429 336.761C713.108 344.092 706.969 348.981 700.754 353.613C684.89 365.439 666.512 370.82 647.204 372.826C611.174 376.569 578.175 368.112 549.414 345.762C521.71 324.235 506.459 295.782 503.323 260.643C496.961 189.353 548.518 136.436 614.092 128.548C639.755 125.461 664.069 129.992 687.798 139.336C694.239 141.873 700.577 145.114 708.951 141.666C708.951 155.301 708.951 167.891 708.951 180.589C707.433 181.053 707.116 179.721 706.703 178.595C699.213 158.17 683.79 145.944 663.92 139.56C612.98 123.193 559.479 144.767 536.62 195.076C528.782 212.327 526.289 230.508 526.932 249.363C527.389 262.747 529.721 275.689 533.792 288.877Z" fill="white"/>
<path d="M855.315 147.737C852.967 145.18 850.404 144.162 847.445 143.803C845.535 143.572 842.714 143.708 843.107 140.798C843.463 138.169 846.179 138.579 848.137 138.554C855.281 138.462 862.427 138.472 869.573 138.464C876.105 138.457 882.638 138.458 889.171 138.5C890.552 138.509 892.112 138.304 892.807 140.164C892.119 143.039 889.424 142.587 887.441 143.132C882.582 144.468 880.006 147.471 879.006 152.472C877.705 158.981 878.254 165.499 878.241 171.996C878.135 225.661 878.058 279.327 878.273 332.991C878.312 342.801 877.248 353.971 892.065 355.857C887.781 358.996 851.7 359.429 845.774 357.053C845.562 356.023 846.215 355.588 847.012 355.277C856.859 351.439 858.059 349.974 858.118 339.129C858.253 314.44 858.168 289.749 858.216 265.059C858.226 259.967 858.288 254.866 858.583 249.784C858.816 245.774 857.19 244.469 853.232 244.514C836.084 244.71 818.934 244.688 801.785 244.698C790.968 244.705 780.15 244.654 769.333 244.565C767.172 244.547 764.292 245.002 764.146 241.782C763.975 237.996 767.081 238.671 769.455 238.63C796.368 238.157 823.285 237.718 850.189 238.798C855.851 239.025 858.231 237.44 858.217 231.356C858.162 208.726 858.608 186.095 858.727 163.463C858.755 158.183 858.58 152.829 855.315 147.737Z" fill="white"/>
</g>
<defs>
<clipPath id="clip0_2093_5933">
<rect width="988" height="419" fill="white"/>
</clipPath>
</defs>
</svg>
