<svg width="166" height="90" viewBox="0 0 166 90" fill="none" xmlns="http://www.w3.org/2000/svg">
<path d="M33.7004 21.7687C34.71 22.0411 35.6455 22.2644 36.5636 22.5449C37.5485 22.8457 38.518 22.7696 39.6806 22.4357C39.8155 24.7051 40.1581 26.8648 39.9741 29.0233C39.6224 29.1072 39.4896 28.9975 39.4369 28.8219C38.3397 25.165 35.5446 23.4662 32.1428 22.5517C30.1015 22.003 28.0039 21.9511 25.9218 22.3986C22.8983 23.0484 20.8737 24.8386 20.0984 27.8645C19.2902 31.019 20.1229 33.742 22.6102 35.8642C24.6575 37.6109 27.1258 38.5889 29.6126 39.5008C32.5759 40.5874 35.5817 41.5635 38.4056 43.0033C40.1878 43.9119 41.8836 44.9537 43.3312 46.3505C47.2062 50.0898 48.0343 55.9831 45.4651 61.357C43.6344 65.186 40.5325 67.5993 36.6729 69.0187C30.1599 71.4139 23.7374 71.2317 17.6262 67.721C13.8569 65.5558 11.6696 62.2467 11.5145 57.8137C11.348 53.0555 13.753 49.7375 17.7711 47.5772C24.3533 44.0384 33.8724 45.5784 38.7185 51.9648C39.382 52.839 39.8978 53.7824 40.0251 54.8919C39.758 54.9712 39.6474 54.872 39.5963 54.7491C37.9226 50.7243 34.7018 48.5803 30.7072 47.402C27.3287 46.4054 23.9398 46.3573 20.5892 47.5182C16.6581 48.8803 13.8223 51.3655 13.1026 55.6509C12.3874 59.9099 13.9518 63.3429 17.2916 66.016C19.943 68.1381 23.0468 69.0428 26.3302 69.381C30.8973 69.8514 35.0926 68.97 38.7704 65.9558C44.2566 61.4594 45.0207 50.8305 37.3789 46.4105C34.9856 45.0262 32.4383 44.0218 29.8507 43.0985C26.5859 41.9336 23.2994 40.8267 20.4079 38.8221C16.9228 36.406 15.3719 32.9228 16.2563 29.1236C17.0973 25.511 19.5526 23.3255 22.8884 22.0721C26.4134 20.7475 30.0106 20.8267 33.7004 21.7687Z" fill="black"/>
<path d="M61.2631 44.5688C60.0748 47.9965 58.9372 51.3557 57.7332 54.6908C57.4361 55.5138 57.3794 56.1326 58.2416 56.5845C58.3938 56.6642 58.4804 56.8272 58.4619 57.0837C58.0414 57.5606 57.6132 56.9803 57.1143 57.0294C56.5708 57.7633 56.5564 58.5897 56.9738 59.397C57.4161 60.2525 58.4554 60.1175 59.1464 60.7356C56.7589 60.7356 54.3714 60.7356 51.9028 60.7356C52.0886 60.1409 52.5277 60.2281 52.854 60.1359C54.3236 59.7203 55.7786 57.8833 55.8529 56.3814C55.8737 55.9623 55.6044 55.7625 55.3708 55.5227C52.3848 52.457 51.5319 48.7853 52.6876 44.7507C53.9237 40.4353 56.9893 37.8779 61.2711 36.8445C62.3336 36.588 62.9108 36.1936 63.2352 35.1258C63.9655 32.7221 64.7841 30.3423 65.6614 27.9883C66.0331 26.9909 65.937 26.1542 65.4576 25.2497C64.6215 23.6723 63.5165 22.5058 61.6288 22.3367C61.3081 22.308 60.9228 22.3314 60.7491 21.8321C61.1302 21.2514 61.7796 21.4854 62.2999 21.4209C65.271 21.0526 67.6766 22.5308 68.8744 25.2615C73.5346 35.8859 78.1928 46.5116 82.9313 57.1008C84.9623 61.6396 87.9868 65.3766 92.4605 67.7397C95.4011 69.293 98.5356 70.0596 101.876 69.8826C102.216 69.8645 102.559 69.869 102.9 69.877C102.952 69.8783 103.002 69.9558 103.109 70.0445C102.937 70.561 102.439 70.4334 102.1 70.4727C93.8859 71.4243 85.2635 67.9206 80.7225 59.9778C78.342 55.8141 76.7381 51.2832 74.7537 46.9319C73.8968 45.0528 73.0839 43.1533 72.2697 41.255C72.0582 40.7617 71.7396 40.3834 71.3282 40.0548C69.4139 38.5257 67.2079 37.7697 64.802 37.5029C64.0345 37.4178 63.6277 37.6497 63.3782 38.4394C62.7356 40.4739 61.9924 42.4763 61.2631 44.5688ZM53.6436 50.2362C54.1722 51.9444 54.8294 53.5775 56.3424 54.9482C58.3399 49.1665 60.2866 43.532 62.2332 37.8976C62.1249 37.8315 62.0166 37.7654 61.9083 37.6993C59.432 38.1816 57.3311 39.3933 55.7065 41.3403C53.5905 43.8762 53.0522 46.8509 53.6436 50.2362ZM70.5981 37.339C69.3827 34.5163 68.1673 31.6936 66.8344 28.5979C65.863 31.3782 64.9969 33.8568 64.0777 36.4877C66.6762 36.5558 68.9152 37.2603 71.1727 38.6912C70.9201 38.1009 70.7867 37.789 70.5981 37.339Z" fill="black"/>
<path d="M89.6856 48.7314C92.6036 57.1073 100.126 62.2875 108.584 61.7993C110.21 61.7055 111.795 61.3762 113.237 60.6044C115.3 59.501 115.756 58.3843 115.378 56.5465C114.906 54.2528 116.654 52.6583 118.769 53.2902C120.34 53.7597 121.054 55.3035 120.372 56.8178C119.814 58.0557 118.782 58.8814 117.738 59.6637C115.073 61.6607 111.985 62.5694 108.741 62.9082C102.687 63.5404 97.1428 62.1121 92.3104 58.3378C87.6557 54.7024 85.0932 49.8974 84.5664 43.9634C83.4974 31.9242 92.1598 22.9879 103.177 21.6558C107.489 21.1344 111.574 21.8997 115.561 23.4777C116.643 23.906 117.708 24.4535 119.115 23.871C119.115 26.1737 119.115 28.2998 119.115 30.4442C118.86 30.5225 118.807 30.2977 118.737 30.1075C117.479 26.6583 114.888 24.5935 111.549 23.5154C102.99 20.7514 94.0014 24.3949 90.1608 32.8907C88.8438 35.8039 88.425 38.8744 88.5331 42.0585C88.6098 44.3187 89.0016 46.5042 89.6856 48.7314Z" fill="black"/>
<path d="M143.707 24.8966C143.312 24.4648 142.881 24.2928 142.384 24.2323C142.063 24.1932 141.589 24.2162 141.656 23.7247C141.715 23.2809 142.172 23.35 142.501 23.3457C143.701 23.3303 144.902 23.3319 146.102 23.3306C147.2 23.3295 148.297 23.3296 149.395 23.3367C149.627 23.3382 149.889 23.3035 150.006 23.6178C149.89 24.1033 149.438 24.0268 149.104 24.1189C148.288 24.3445 147.855 24.8516 147.687 25.6962C147.469 26.7954 147.561 27.8961 147.559 28.9934C147.541 38.056 147.528 47.1188 147.564 56.1814C147.571 57.8381 147.392 59.7244 149.881 60.0429C149.161 60.573 143.099 60.646 142.104 60.2449C142.068 60.0709 142.178 59.9975 142.312 59.945C143.966 59.2968 144.168 59.0494 144.178 57.2179C144.2 53.0485 144.186 48.8789 144.194 44.7094C144.196 43.8494 144.206 42.988 144.256 42.1298C144.295 41.4526 144.022 41.2321 143.357 41.2398C140.476 41.2729 137.594 41.2692 134.713 41.2709C132.895 41.272 131.078 41.2635 129.26 41.2483C128.897 41.2453 128.413 41.3221 128.389 40.7784C128.36 40.139 128.882 40.2531 129.281 40.2461C133.803 40.1662 138.325 40.0921 142.845 40.2744C143.797 40.3128 144.197 40.0452 144.194 39.0177C144.185 35.196 144.26 31.3742 144.28 27.5523C144.285 26.6606 144.255 25.7565 143.707 24.8966Z" fill="black"/>
</svg>
